<?xml version="1.0" encoding="UTF-8"?>
<svg width="30px" height="30px" viewBox="0 0 30 30" version="1.1" xmlns="http://www.w3.org/2000/svg" xmlns:xlink="http://www.w3.org/1999/xlink">
    <title>编组 3</title>
    <defs>
        <linearGradient x1="50%" y1="0%" x2="50%" y2="100%" id="linearGradient-1">
            <stop stop-color="#00B465" offset="0%"></stop>
            <stop stop-color="#008F50" offset="100%"></stop>
        </linearGradient>
        <path d="M30,15 C30,23.284275 23.284275,30 15,30 C6.715725,30 0,23.284275 0,15 C0,6.715725 6.715725,0 15,0 C23.284275,0 30,6.715725 30,15 Z" id="path-2"></path>
    </defs>
    <g id="平台首页" stroke="none" stroke-width="1" fill="none" fill-rule="evenodd">
        <g id="平台-通知中心浮窗" transform="translate(-1848.000000, -15.000000)">
            <g id="编组-3" transform="translate(1848.000000, 15.000000)">
                <mask id="mask-3" fill="white">
                    <use xlink:href="#path-2"></use>
                </mask>
                <use id="Avatar_background备份-5" fill="url(#linearGradient-1)" fill-rule="nonzero" xlink:href="#path-2"></use>
                <g id="编组备份" mask="url(#mask-3)">
                    <g transform="translate(6.000000, 4.000000)">
                        <path d="M16.3200919,13.4737691 C14.9984048,13.8248645 13.5386733,12.6745065 13.0601192,10.9040592 C12.5815651,9.13384573 13.265416,7.41415637 14.5873391,7.06306092 C15.9092622,6.71196547 17.3687578,7.86232351 17.8473119,9.63277084 C18.325866,11.4029843 17.642015,13.1226736 16.3200919,13.4737691 L16.3200919,13.4737691 Z M9.60405251,15.2977813 C8.08579955,15.7010381 6.46702192,14.5927835 5.98846783,12.8225701 C5.50991374,11.0523566 6.35281078,9.29056389 7.87106374,8.88707312 C9.3893167,8.48381625 11.0080943,9.5920709 11.4866484,11.3622843 C11.9652025,13.1324978 11.1223055,14.8945244 9.60405251,15.2977813 Z M12.4940189,11.9119674 L13.443576,13.357283 L12.5546641,13.5932959 M12.9761126,10.891896 L11.49066,11.2864982 M5.24255586,15.6746066 C4.9746756,16.2909859 4.43655129,16.7516456 3.78235236,16.9246093 C2.60272125,17.2378117 1.39076179,16.5466144 1.0755013,15.3803507 C0.760240817,14.2140869 1.46108186,13.0146083 2.64071297,12.701172 C3.29901849,12.5254656 4.00228811,12.660814 4.54643428,13.0679392" id="形状" stroke="#FFFFFF" stroke-width="0.5" fill="none"></path>
                        <path d="M15.1297945,23.0000573 C15.1862556,23.5163938 15.0848117,23.3197095 15.4087512,23.8618809 C16.6145806,23.8618809 17.1309626,23.6185638 16.6712501,23.8926859 C14.4266935,25.231093 11.8031412,26 9,26 C6.39219309,26 3.9398181,25.3345204 1.80343294,24.1641191 C2.54854993,24.0510005 2.84990452,23.9997384 4.15476705,23.8618809 C5.04063683,23.7682895 5.87888235,23.8618909 6.17900121,23.8618809 C6.10340153,23.5908364 6.09260158,23.5228828 6.09105872,23.4783678 L6.09054444,23.435012 C6.0892394,23.3936912 6.08131102,23.3262942 6.03314462,23.1240947 C7.0293877,24.2599905 8.65907033,25 10.5,25 C12.4071967,25 14.0876643,24.2057561 15.0742591,22.9994769 L15.1297945,23.0000573 Z" id="形状结合" stroke="none" fill="#A9E9C5" fill-rule="nonzero"></path>
                        <path d="M2.37715535,16 C2.1214217,15.7729452 1.98236226,15.4326894 2.00179711,15.0815594 C2.03592058,14.4548098 2.55418266,13.9712325 3.15935591,14.0013323 C3.4952301,14.0167893 3.8054831,14.194311 4,14.4823353" id="路径" stroke="#FFFFFF" stroke-width="0.5" fill="none"></path>
                        <path d="M3.01758971,15.1338225 C2.95025869,14.7228534 3.07841082,14.3040752 3.36455569,14 M14.0927905,19.4276719 L15.3253347,24 L18,23.9997685 M4.36726409,17.0387277 L6.30072621,23.9898146 L4.52980252,23.9509248 L1.5080479,24.2830071" id="形状" stroke="#FFFFFF" stroke-width="0.5" fill="none"></path>
                        <path d="M10,20 L14.3285254,18.901713 C16.2507771,18.4138715 17.3912802,16.5427593 16.8763737,14.722654 L16.87415,14.7151667 L14.3863412,6" id="路径" stroke="#FFFFFF" stroke-width="0.5" fill="none"></path>
                        <path d="M10.4417743,0.197494085 C9.269672,0.513236913 8.32651924,1.16205838 7.68725338,1.97152498 L3.95624867,2.97168547 C1.15552403,3.67598151 -0.544817405,6.53916337 0.158811788,9.36651789 C0.261590079,9.77934846 0.413398818,10.1782427 0.61096423,10.5545985 L1.95914627,13.0458695 C2.58921736,12.5523769 3.26756096,12.3896515 3.99394719,12.5583866 L3.95142142,10.141544 C5.17409495,10.216897 6.28390277,10.0190377 7.28107475,9.547966 C8.27801687,9.07689435 8.99911611,8.37282944 9.44460235,7.43530901 C10.3259203,7.70043128 11.3467688,7.72423912 12.3738238,7.4473285 C14.8527317,6.77932208 16.4296335,4.61488881 15.8963373,2.61294984 C15.3628112,0.611010864 12.9206823,-0.470512339 10.4417743,0.197494085 L10.4417743,0.197494085 Z M4.60103138,16.4448434 L3.85165824,16.7670583 L5.31914232,19.1402146 M10.0953617,20.1648764 L14.6968805,21 L14.1348507,18.9573797 L10.0953617,20.1648764 Z" id="形状" stroke="none" fill="#FFFFFF" fill-rule="evenodd"></path>
                        <path d="M12.0008573,15.6673812 C11.9734983,15.588112 12.6065754,15.6883807 13.0979719,15.5846814 C13.602694,15.4781701 13.9668343,15.1697658 13.9949352,15.2511847 C14.0500853,15.4118727 13.6485432,15.6017526 13.0979719,15.71684 C12.4033289,15.7909928 12.037624,15.7745066 12.0008573,15.6673812 Z" id="路径" stroke="#FFFFFF" stroke-width="0.5" fill="none"></path>
                    </g>
                </g>
            </g>
        </g>
    </g>
</svg>