<svg width="1920" height="1080" viewBox="0 0 1920 1080" xmlns="http://www.w3.org/2000/svg" xmlns:xlink="http://www.w3.org/1999/xlink"><defs><linearGradient x1="50%" y1="0%" x2="50%" y2="100%" id="a"><stop stop-color="#F0FFF8" offset="0%"/><stop stop-color="#FCFFFD" offset="100%"/></linearGradient><path id="b" d="M1920 0H0v1080h1920z"/></defs><g fill="none" fill-rule="evenodd"><path fill="url(#a)" fill-rule="nonzero" d="M0 0h1920v1080H0z"/><mask id="c" fill="#fff"><use xlink:href="#b"/></mask><g mask="url(#c)"><path d="M972 1465.67c493.01 0 892.67-399.66 892.67-892.67 0-493.006-399.66-892.667-892.67-892.667-493.006 0-892.667 399.66-892.667 892.667 0 493.01 399.661 892.67 892.667 892.67z" stroke="#BCEBD0"/><path d="M1858.16 703.995c7.09 0 12.83-5.745 12.83-12.831 0-7.086-5.74-12.831-12.83-12.831s-12.83 5.745-12.83 12.831c0 7.086 5.74 12.831 12.83 12.831z" fill="#A9E9C5" fill-rule="nonzero"/><path d="M972 1291c396.54 0 718-321.459 718-718 0-396.54-321.46-718-718-718S254 176.46 254 573c0 396.541 321.46 718 718 718z" stroke="#BCEBD0"/><path d="M972 1136.33c311.12 0 563.33-252.21 563.33-563.33S1283.12 9.667 972 9.667 408.667 261.88 408.667 573 660.88 1136.33 972 1136.33z" stroke="#BCEBD0"/><path d="M972 1003c237.48 0 430-192.518 430-430s-192.52-430-430-430c-237.482 0-430 192.518-430 430s192.518 430 430 430z" stroke="#BCEBD0"/><path d="M972 884.333c171.94 0 311.33-139.388 311.33-311.333 0-171.945-139.39-311.333-311.33-311.333-171.945 0-311.333 139.388-311.333 311.333 0 171.945 139.388 311.333 311.333 311.333z" stroke="#BCEBD0"/><path d="M972 777.667c113.03 0 204.67-91.633 204.67-204.667S1085.03 368.333 972 368.333c-113.034 0-204.667 91.633-204.667 204.667S858.966 777.667 972 777.667z" stroke="#BCEBD0"/><path d="M1768.33 193.653c14.17 0 25.66-11.488 25.66-25.66 0-14.171-11.49-25.66-25.66-25.66s-25.66 11.489-25.66 25.66c0 14.172 11.49 25.66 25.66 25.66z" fill="#B6E7CB" fill-rule="nonzero"/><path d="M97.66 769.653c14.172 0 25.66-11.488 25.66-25.66 0-14.171-11.488-25.66-25.66-25.66S72 729.822 72 743.993c0 14.172 11.488 25.66 25.66 25.66zm226.868-487.597c11.337 0 20.528-9.191 20.528-20.528 0-11.337-9.191-20.528-20.528-20.528-11.337 0-20.528 9.191-20.528 20.528 0 11.337 9.191 20.528 20.528 20.528z" fill="#A9E9C5" fill-rule="nonzero"/><path d="M1472.37 1083.91c11.34 0 20.53-9.2 20.53-20.53 0-11.34-9.19-20.53-20.53-20.53-11.33 0-20.52 9.19-20.52 20.53 0 11.33 9.19 20.53 20.52 20.53z" fill="#44BC80" fill-rule="nonzero"/><path d="M1308.83 318.661c7.09 0 12.83-5.744 12.83-12.83 0-7.087-5.74-12.831-12.83-12.831s-12.83 5.744-12.83 12.831c0 7.086 5.74 12.83 12.83 12.83z" fill="#B6E7CB" fill-rule="nonzero"/></g></g></svg>